<svg width="19" height="19" viewBox="0 0 19 19" fill="none" xmlns="http://www.w3.org/2000/svg">
<g id="fi-rs-sign-out" clip-path="url(#clip0_144_7908)">
<g id="01 align center">
<path id="Vector" d="M2 16.25V2.75C2 2.55109 2.07902 2.36032 2.21967 2.21967C2.36032 2.07902 2.55109 2 2.75 2H6.5V0.5H2.75C2.15326 0.5 1.58097 0.737053 1.15901 1.15901C0.737053 1.58097 0.5 2.15326 0.5 2.75L0.5 16.25C0.5 16.8467 0.737053 17.419 1.15901 17.841C1.58097 18.2629 2.15326 18.5 2.75 18.5H6.5V17H2.75C2.55109 17 2.36032 16.921 2.21967 16.7803C2.07902 16.6397 2 16.4489 2 16.25Z" fill="white"/>
<path id="Vector_2" d="M17.842 7.9088L14.4025 4.4693L13.342 5.5298L16.54 8.7278L4.24976 8.74955V10.2495L16.582 10.2278L13.3405 13.4693L14.401 14.5298L17.8405 11.0903C18.2625 10.6686 18.4998 10.0965 18.5 9.49986C18.5003 8.90324 18.2636 8.33094 17.842 7.9088Z" fill="white"/>
</g>
</g>
<defs>
<clipPath id="clip0_144_7908">
<rect width="18" height="18" fill="white" transform="translate(0.5 0.5)"/>
</clipPath>
</defs>
</svg>
